<svg enable-background="new 0 0 391.1 391.1" version="1.1" viewBox="0 0 391.1 391.1" xml:space="preserve" xmlns="http://www.w3.org/2000/svg" xmlns:xlink="http://www.w3.org/1999/xlink"><style type="text/css">
	.st0{clip-path:url(#SVGID_2_);fill:#0394A6;}
	.st1{clip-path:url(#SVGID_2_);fill:#FFFFFF;}
</style><defs><rect id="SVGID_1_" width="391.1" height="391.1"/></defs><clipPath id="SVGID_2_"><use xlink:href="#SVGID_1_"/></clipPath><path d="m195.55 0a195.55 195.55 0 0 0-195.55 195.55 195.55 195.55 0 0 0 195.55 195.55 195.55 195.55 0 0 0 195.55-195.55 195.55 195.55 0 0 0-195.55-195.55zm0.04883 65.1h0.90039c31.5 0 57.1 25.6 57.1 57.1v37.9c-6.6-5.4-13.899-9.7996-21.799-13.1-2.1-1-4.3-1.7996-6.5-2.5996v-22.301c0-15.9-12.901-28.799-28.801-28.799h-0.90039c-15.9 0-28.799 12.899-28.799 28.799v22.301c-2.2 0.8-4.4 1.6-6.5 2.5-7.9 3.4-15.201 7.6996-21.801 13.1v-37.801c0-31.5 25.6-57.1 57.1-57.1zm0.5 85.9c10.3 0 20.201 2 29.201 5.5 10.7 4.2 20.399 10.701 28.299 18.801 14.1 14.5 22.801 34.3 22.801 56.1 0 44.4-36.001 80.299-80.301 80.299s-80.299-35.999-80.299-80.299c0-21.8 8.6988-41.6 22.799-56.1 7.9-8.1 17.501-14.601 28.301-18.801 9-3.6 18.899-5.5 29.199-5.5zm-0.40039 44.1c-11 0.2-19.899 9.0996-20.199 20.1-0.1 1.4 7.8e-4 2.7016 0.30078 4.1016 1 5.9 4.4984 10.9 9.3984 14 2 1.3 3 3.7 2.5 6l-6.1992 29.199c-0.3 1.8 1.0008 3.4004 2.8008 3.4004h23.699c1.8 0 3.2008-1.6004 2.8008-3.4004l-6.1016-29.199c-0.5-2.3 0.5-4.7 2.5-6 4.9-3.1 8.4004-8.1 9.4004-14 0.2-1.1 0.30078-2.3 0.30078-3.5 0-11.6-9.6012-21.001-21.201-20.701z" fill="#61dafb"/></svg>
