<svg width="540" height="120" version="1.1" xmlns="http://www.w3.org/2000/svg" xmlns:xhtml="http://www.w3.org/1999/xhtml">
 <xhtml:style/>
 <g transform="translate(20.5,17.5)">
  <g transform="matrix(1.0128 0 0 1.0084 -.0001803 0)">
   <path d="m62.176 71.979c-0.042-13.617-6.992-22.985-19.109-26.539 7.358-4.182 12.336-12.087 12.336-21.138-1e-3 -13.401-10.902-24.302-24.302-24.302-13.399 0-24.301 10.901-24.301 24.302 0 9.083 5.012 17.012 12.412 21.182-12.036 3.624-19.142 13.096-19.186 26.496-0.071 0.534-0.066 1.714 0.974 3.063 3.212 4.165 13.339 6.277 30.101 6.277s26.891-2.112 30.102-6.277c1.039-1.35 1.045-2.529 0.973-3.064z" fill="#3966a0" stroke="#000" stroke-miterlimit="10" stroke-opacity="0"/>
   <path d="m31.101 3c-11.745 0-21.301 9.556-21.301 21.302 0 9.276 5.971 17.165 14.263 20.081 2.207 0.776 4.569 1.221 7.038 1.221 2.486 0 4.865-0.451 7.086-1.238 8.268-2.93 14.215-10.805 14.215-20.063 0-11.747-9.555-21.303-21.301-21.303z" fill="#fff" opacity=".93" stroke="#000" stroke-miterlimit="10" stroke-opacity="0"/>
   <path d="m3.026 72.104-0.021 0.349c0.021 0.153 0.121 0.513 0.578 1.002 1.365 1.463 6.779 4.866 27.518 4.866 21.469 0 26.541-3.573 27.727-5.109 0.274-0.357 0.398-0.725 0.398-0.725l-0.05-0.383c0-13.678-7.438-22.381-20.681-24.654-2.334 0.747-4.817 1.154-7.396 1.154-2.558 0-5.023-0.4-7.34-1.137-13.116 2.328-20.733 11.17-20.733 24.637z" fill="#fff" opacity=".93" stroke="#000" stroke-miterlimit="10" stroke-opacity="0"/>
  </g>
 </g>
 <g transform="translate(220.5,17.5)">
  <g transform="scale(1.006 1.0102)">
   <path d="m93.835 1.536c-0.626-0.926-1.685-1.536-2.887-1.536h-87.469c-1.918 0-3.479 1.561-3.479 3.479v64.627c0 0.72 0.22 1.389 0.595 1.944 0.022 0.032 0.054 0.061 0.078 0.094 0.436 0.598 1.057 1.043 1.779 1.269 0.327 0.104 0.667 0.172 1.026 0.172h33.646v2.809h-10.656c-1.919 0-3.479 1.562-3.479 3.479v1.799c0 1.92 1.562 3.479 3.479 3.479h41.78c0.479 0 0.938-0.098 1.354-0.274 1.247-0.527 2.125-1.767 2.125-3.206v-1.799c0-1.438-0.878-2.677-2.125-3.206-0.416-0.176-0.873-0.273-1.354-0.273h-10.942v-2.809h33.646c1.918 0 3.479-1.562 3.479-3.478v-64.626c-1e-3 -0.719-0.22-1.387-0.596-1.944z" fill="#3966a0" stroke="#000" stroke-miterlimit="10" stroke-opacity="0"/>
   <path d="m90.948 3.111h-87.47c-0.234 0-0.432 0.198-0.432 0.433v64.627c0 0.234 0.197 0.434 0.432 0.434h87.473c0.236 0 0.435-0.198 0.435-0.434v-64.627c-2e-3 -0.235-0.2-0.433-0.438-0.433zm-3.753 55.464h-79.962v-51.404h79.962z" fill="#fff" opacity=".93" stroke="#000" stroke-miterlimit="10" stroke-opacity="0"/>
   <path d="m68.247 77.523h-41.781c-0.235 0-0.434 0.197-0.434 0.433v1.801c0 0.233 0.198 0.432 0.434 0.432h41.779c0.234 0 0.433-0.197 0.433-0.432v-1.801c1e-3 -0.235-0.197-0.433-0.431-0.433z" fill="#fff" opacity=".93" stroke="#000" stroke-miterlimit="10" stroke-opacity="0"/>
   <path d="m7.233 7.171v51.404h10.774l29.678-51.404z" fill="#fff" opacity=".1" stroke="#000" stroke-miterlimit="10" stroke-opacity="0"/>
   <path d="m51.323 74.407h2.937v-2.808h-11.155" fill="#fff" opacity=".7" stroke="#000" stroke-miterlimit="10" stroke-opacity="0"/>
   <path d="m43.087 71.599h-2.917v2.808h11.104" fill="#fff" opacity=".85" stroke="#000" stroke-miterlimit="10" stroke-opacity="0"/>
  </g>
 </g>
 <g transform="translate(460.5,10)">
  <g transform="scale(.99998 1.0079)">
   <path d="m5.456 96.24h49.09c3.01 0 5.455-2.447 5.455-5.455v-29.772c0-1.578-0.689-3.047-1.83-4.061v-1.312c1.14-1.014 1.829-2.48 1.829-4.06v-9.422c0-1.578-0.689-3.045-1.83-4.06v-0.871c1.141-1.014 1.83-2.481 1.83-4.06v-9.422c0-1.578-0.689-3.046-1.83-4.06v-0.871c1.141-1.014 1.83-2.481 1.83-4.06v-9.422c0-2.3-1.465-4.363-3.648-5.134l-0.439-0.155h-0.467l-50.746-0.043h-0.393l-0.377 0.111c-2.314 0.675-3.93 2.823-3.93 5.219v9.422c0 1.637 0.754 3.158 1.969 4.174v0.643c-1.215 1.017-1.969 2.538-1.969 4.175v9.422c0 1.637 0.754 3.158 1.969 4.174v0.644c-1.215 1.016-1.969 2.537-1.969 4.174v9.422c0 1.639 0.754 3.158 1.969 4.174v1.084c-1.215 1.016-1.969 2.537-1.969 4.175v29.771c0 3.008 2.447 5.456 5.456 5.456z" fill="#3966a0" stroke="#000" stroke-miterlimit="10" stroke-opacity="0"/>
   <path d="m45.802 9.886a2.273 2.273 0 1 0-1e-6 0.00227z" fill="#fff" opacity=".5" stroke="#000" stroke-miterlimit="10" stroke-opacity="0"/>
   <path d="m45.802 28.357a2.273 2.273 0 1 0-1e-6 0.0023z" fill="#fff" opacity=".5" stroke="#000" stroke-miterlimit="10" stroke-opacity="0"/>
   <path d="m45.802 46.884a2.273 2.273 0 1 0-1e-6 0.0023z" fill="#fff" opacity=".5" stroke="#000" stroke-miterlimit="10" stroke-opacity="0"/>
   <path d="m4.698 17.467h50.745v3.537h-50.745v-3.537z" fill="#fff" opacity=".25" stroke="#000" stroke-miterlimit="10" stroke-opacity="0"/>
   <path d="m4.697 35.904h50.747v3.537h-50.747v-3.537z" fill="#fff" opacity=".25" stroke="#000" stroke-miterlimit="10" stroke-opacity="0"/>
   <path d="m4.697 54.511h50.747v3.537h-50.747v-3.537z" fill="#fff" opacity=".25" stroke="#000" stroke-miterlimit="10" stroke-opacity="0"/>
   <path d="m55.443 21.181v-0.178h-50.746v0.134c-1.132 0.332-1.969 1.371-1.969 2.606v9.422c0 1.235 0.838 2.274 1.969 2.606v0.132h50.746v-0.175c1.06-0.374 1.83-1.378 1.83-2.563v-9.422c0-1.183-0.771-2.187-1.83-2.562zm-11.914 9.448c-1.256 0-2.272-1.018-2.272-2.273s1.018-2.273 2.272-2.273 2.272 1.018 2.272 2.273c0 1.256-1.017 2.273-2.272 2.273zm7.575 0c-1.254 0-2.271-1.018-2.271-2.273s1.019-2.273 2.271-2.273c1.256 0 2.273 1.018 2.273 2.273 0 1.256-1.018 2.273-2.273 2.273z" fill="#fff" opacity=".8" stroke="#000" stroke-miterlimit="10" stroke-opacity="0"/>
   <path d="m55.443 39.595v-0.154h-50.746v0.111c-1.132 0.332-1.969 1.371-1.969 2.605v9.422c0 1.236 0.838 2.274 1.969 2.606v0.324h50.746v-0.367c1.06-0.375 1.83-1.379 1.83-2.563v-9.422c0-1.184-0.771-2.187-1.83-2.562zm-11.914 9.563c-1.256 0-2.272-1.019-2.272-2.273 0-1.256 1.018-2.273 2.272-2.273s2.272 1.018 2.272 2.273c0 1.254-1.017 2.273-2.272 2.273zm7.575 0c-1.254 0-2.271-1.019-2.271-2.273 0-1.256 1.019-2.273 2.271-2.273 1.256 0 2.273 1.018 2.273 2.273 0 1.254-1.018 2.273-2.273 2.273z" fill="#fff" opacity=".8" stroke="#000" stroke-miterlimit="10" stroke-opacity="0"/>
   <path d="m55.443 2.767-50.747-0.043c-1.132 0.332-1.969 1.371-1.969 2.606v9.422c0 1.235 0.838 2.274 1.969 2.606v0.108h50.746v-0.151c1.061-0.374 1.83-1.378 1.83-2.563v-9.422c1e-3 -1.184-0.77-2.188-1.829-2.563zm-11.914 9.392c-1.256 0-2.272-1.018-2.272-2.273s1.018-2.273 2.272-2.273 2.272 1.018 2.272 2.273-1.017 2.273-2.272 2.273zm7.575 0c-1.254 0-2.271-1.018-2.271-2.273s1.019-2.273 2.271-2.273c1.256 0 2.273 1.018 2.273 2.273s-1.018 2.273-2.273 2.273z" fill="#fff" opacity=".8" stroke="#000" stroke-miterlimit="10" stroke-opacity="0"/>
   <path d="m55.443 58.449v-0.4h-50.746v0.357c-1.132 0.332-1.969 1.371-1.969 2.606v29.772c0 1.5 1.228 2.728 2.728 2.728h49.09c1.5 0 2.729-1.228 2.729-2.728v-29.771c-2e-3 -1.185-0.773-2.189-1.832-2.564zm-43.827 27.052c-0.15 0-0.301-0.035-0.439-0.113-0.439-0.242-0.598-0.795-0.355-1.234l6.258-11.309c0.244-0.439 0.797-0.598 1.236-0.355 0.439 0.244 0.598 0.797 0.355 1.236l-6.258 11.309c-0.168 0.298-0.478 0.466-0.797 0.466zm7.409 0c-0.149 0-0.3-0.035-0.438-0.113-0.439-0.242-0.599-0.795-0.355-1.234l6.258-11.309c0.243-0.439 0.799-0.598 1.236-0.355 0.439 0.244 0.598 0.797 0.355 1.236l-6.259 11.309c-0.166 0.298-0.476 0.466-0.797 0.466zm7.41 0c-0.149 0-0.3-0.035-0.438-0.113-0.439-0.242-0.599-0.795-0.355-1.234l6.257-11.309c0.244-0.439 0.799-0.598 1.235-0.355 0.439 0.244 0.599 0.797 0.355 1.236l-6.258 11.309c-0.166 0.298-0.477 0.466-0.796 0.466zm7.411 0c-0.15 0-0.301-0.035-0.439-0.113-0.439-0.242-0.598-0.795-0.355-1.234l6.259-11.309c0.243-0.439 0.799-0.598 1.235-0.355 0.439 0.244 0.599 0.797 0.355 1.236l-6.258 11.309c-0.168 0.298-0.478 0.466-0.797 0.466zm14.463-11.776-6.258 11.308c-0.164 0.299-0.477 0.469-0.795 0.469-0.148 0-0.301-0.035-0.439-0.113-0.438-0.242-0.598-0.795-0.354-1.234l6.257-11.309c0.243-0.439 0.799-0.598 1.235-0.355 0.438 0.243 0.596 0.796 0.354 1.234z" fill="#fff" opacity=".8" stroke="#000" stroke-miterlimit="10" stroke-opacity="0"/>
  </g>
 </g>
 <g transform="translate(100.5,33.5)" stroke="#3966a0" stroke-linecap="round" stroke-linejoin="round" stroke-width="2.5">
  <g stroke="#3966a0" stroke-linecap="round" stroke-linejoin="round" stroke-width="2.5">
   <g transform="scale(1 .5)" stroke="#3966a0" stroke-linecap="round" stroke-linejoin="round" stroke-width="3.5355">
    <g stroke="#3966a0" stroke-linecap="round" stroke-linejoin="round" stroke-width="3.5355">
     <path d="m0 50 25-50v30h75v40h-75v30z" fill="#f1f4f8" stroke="#3966a0" stroke-linecap="round" stroke-linejoin="round" stroke-width="3.5355"/>
    </g>
   </g>
  </g>
 </g>
 <g transform="matrix(.058594 0 0 .058594 135 28)">
  <path d="m512 176c0 97.202-78.798 176-176 176-11.22 0-22.19-1.062-32.827-3.069l-24.012 27.014c-4.5542 5.1235-11.083 8.055-17.938 8.055h-37.223v40c0 13.255-10.745 24-24 24h-40v40c0 13.255-10.745 24-24 24h-112c-13.255 0-24-10.745-24-24v-78.059c0-6.365 2.529-12.47 7.029-16.971l161.8-161.8c-5.723-17.354-8.831-35.897-8.831-55.168 0-97.202 78.797-176 176-176 97.489-1e-3 176 78.511 176 176zm-176-48.001c0 26.51 21.49 48 48 48s48-21.49 48-48-21.49-48-48-48-48 21.49-48 48z" fill="currentColor" stroke="#000" stroke-miterlimit="10" stroke-opacity="0"/>
 </g>
 <g transform="matrix(.058594 0 0 .058594 165 29)">
  <path d="m256.12 245.96c-13.25 0-24 10.74-24 24 1.14 72.25-8.14 141.9-27.7 211.55-2.73 9.72 2.15 30.49 23.12 30.49 10.48 0 20.11-6.92 23.09-17.52 13.53-47.91 31.04-125.41 29.48-224.52 0.01-13.25-10.73-24-23.99-24zm-0.86-81.73c-61.26-0.07-104.01 47.07-103.16 101.09 0.75 47.94-3.75 95.91-13.37 142.55-2.69 12.98 5.67 25.69 18.64 28.36 13.05 2.67 25.67-5.66 28.36-18.64 10.34-50.09 15.17-101.58 14.37-153.02-0.41-25.95 19.92-52.49 54.45-52.34 31.31 0.47 57.15 25.34 57.62 55.47 0.77 48.05-2.81 96.33-10.61 143.55-2.17 13.06 6.69 25.42 19.76 27.58 19.97 3.33 26.81-15.1 27.58-19.77 8.28-50.03 12.06-101.21 11.27-152.11-0.88-55.8-47.94-101.88-104.91-102.72zm-110.69-19.78c-10.3-8.34-25.37-6.8-33.76 3.48-25.62 31.5-39.39 71.28-38.75 112 0.59 37.58-2.47 75.27-9.11 112.05-2.34 13.05 6.31 25.53 19.36 27.89 20.11 3.5 27.07-14.81 27.89-19.36 7.19-39.84 10.5-80.66 9.86-121.33-0.47-29.88 9.2-57.88 28-80.97 8.35-10.28 6.79-25.39-3.49-33.76zm109.47-62.33c-15.41-0.41-30.87 1.44-45.78 4.97-12.89 3.06-20.87 15.98-17.83 28.89 3.06 12.89 16 20.83 28.89 17.83 11.05-2.61 22.47-3.77 34-3.69 75.43 1.13 137.73 61.5 138.88 134.58 0.59 37.88-1.28 76.11-5.58 113.63-1.5 13.17 7.95 25.08 21.11 26.58 16.72 1.95 25.51-11.88 26.58-21.11 4.5439-39.781 6.5113-79.815 5.89-119.85-1.56-98.75-85.07-180.33-186.16-181.83zm252.07 121.45c-2.86-12.92-15.51-21.2-28.61-18.27-12.94 2.86-21.12 15.66-18.26 28.61 4.71 21.41 4.91 37.41 4.7 61.6-0.11 13.27 10.55 24.09 23.8 24.2h0.2c13.17 0 23.89-10.61 24-23.8 0.18-22.18 0.4-44.11-5.83-72.34zm-40.12-90.72c-48.7-69.39-128.39-111.56-213.18-112.83-69.79-0.84-134.34 24.89-182.35 72.92-46.37 46.43-71.36 108.1-70.32 173.71l-0.12 21.47c-0.39 13.25 10.03 24.31 23.28 24.69 0.23 0.02 0.48 0.02 0.72 0.02 12.92 0 23.59-10.3 23.97-23.3l0.16-23.64c-0.83-52.5 19.16-101.86 56.28-139 38.76-38.8 91.34-59.67 147.68-58.86 69.45 1.03 134.73 35.56 174.62 92.39 7.61 10.86 22.56 13.45 33.42 5.86 10.84-7.62 13.46-22.59 5.84-33.43z" fill="currentColor" stroke="#000" stroke-miterlimit="10" stroke-opacity="0"/>
 </g>
</svg>
