<svg aria-hidden="true" focusable="false" data-prefix="fas" data-icon="file-remove" className="svg-inline--fa fa-file-remove fa-w-12" role="img" xmlns="http://www.w3.org/2000/svg" viewBox="0 0 384 512"><path fill="currentColor" d="M 377,105 279.1,7 C 274.6,2.5 268.5,0 262.1,0 H 256 v 128 h 128 v -6.1 c 0,-6.3 -2.5,-12.4 -7,-16.9 z M 224,136 V 0 H 24 C 10.7,0 0,10.7 0,24 v 464 c 0,13.3 10.7,24 24,24 h 336 c 13.3,0 24,-10.7 24,-24 V 160 H 248 c -13.2,0 -24,-10.8 -24,-24 z m 64,160 v 48 c 0,4.4 -3.6,8 -8,8 -58.66667,0 -117.33333,0 -176,0 -4.4,0 -8,-3.6 -8,-8 v -48 c 0,-4.4 3.6,-8 8,-8 58.66667,0 117.33333,0 176,0 4.4,0 8,3.6 8,8 z" id="path203"></path></svg>
